<?xml version="1.0" standalone="no"?>
<!DOCTYPE svg PUBLIC "-//W3C//DTD SVG 20010904//EN"
 "http://www.w3.org/TR/2001/REC-SVG-20010904/DTD/svg10.dtd">
<svg version="1.0" xmlns="http://www.w3.org/2000/svg"
 width="270.000000pt" height="270.000000pt" viewBox="0 0 270.000000 270.000000"
 preserveAspectRatio="xMidYMid meet">
<metadata>
Created by potrace 1.14, written by Peter Selinger 2001-2017
</metadata>
<g transform="translate(0.000000,270.000000) scale(0.100000,-0.100000)"
fill="#000000" stroke="none">
<path d="M0 1350 l0 -1350 1350 0 1350 0 0 1350 0 1350 -1350 0 -1350 0 0
-1350z m1259 980 c47 -10 121 -26 164 -36 42 -9 79 -19 82 -23 2 -5 -27 -72
-65 -150 -39 -79 -70 -145 -70 -147 0 -2 180 -4 400 -4 l400 0 2 -612 3 -613
98 -3 97 -3 0 -154 0 -155 -1010 0 -1010 0 0 155 0 155 100 0 100 0 0 615 0
615 234 0 235 0 19 53 c30 79 68 205 82 270 15 67 13 66 139 37z"/>
<path d="M850 1205 l0 -465 70 0 70 0 0 465 0 465 -70 0 -70 0 0 -465z"/>
<path d="M1280 1205 l0 -465 70 0 70 0 0 465 0 465 -70 0 -70 0 0 -465z"/>
<path d="M1710 1205 l0 -465 75 0 75 0 0 465 0 465 -75 0 -75 0 0 -465z"/>
</g>
</svg>
